# xmcd
#
# Track frame offsets:
# 150
# 10935
# 24168
# 36723
# 54146
# 74960
# 90464
# 106425
# 116293
# 130044
# 142698
# 156525
# 169315
# 181494
# 199393
# 213430
# 228038
# 243685
#
# Disc length: 3346 seconds
#
#
# Revision: 0
# Processed by: cddbd v1.5.2PL0 Copyright (c) Steve Scherf et al.
# Submitted via: FreeRIP 2.944 
#
DISCID=fc0d1012
DTITLE=The Country Relatives - Made In Bequia
DYEAR=2008
DGENRE=Country
TTITLE0=SHe's Leaving
TTITLE1=Back in Bequia
TTITLE2=Act Naturally
TTITLE3=Harpoon Saloon
TTITLE4=Judy Ann
TTITLE5=Fighting Side of Me
TTITLE6=Jack-a-Dell
TTITLE7=St Vincent, My Home Land
TTITLE8=The One I Love
TTITLE9=You are my Best Friend
TTITLE10=Love me Tonight
TTITLE11=Tennessee Whiskey
TTITLE12=Long Blonde Hair
TTITLE13=Let me be your Jack, Jill
TTITLE14=Bequia
TTITLE15=Vagrant Song
TTITLE16=My Vacation
TTITLE17=Freight Train
EXTD=
EXTT0=
EXTT1=
EXTT2=
EXTT3=
EXTT4=
EXTT5=
EXTT6=
EXTT7=
EXTT8=
EXTT9=
EXTT10=
EXTT11=
EXTT12=
EXTT13=
EXTT14=
EXTT15=
EXTT16=
EXTT17=
PLAYORDER=
